<?xml version="1.0" encoding="utf-8"?>
<!-- Generator: Adobe Illustrator 16.0.0, SVG Export Plug-In . SVG Version: 6.00 Build 0)  -->
<!DOCTYPE svg PUBLIC "-//W3C//DTD SVG 1.1//EN" "http://www.w3.org/Graphics/SVG/1.1/DTD/svg11.dtd">
<svg version="1.1" id="Layer_1" xmlns="http://www.w3.org/2000/svg" xmlns:xlink="http://www.w3.org/1999/xlink" x="0px" y="0px"
	 width="600px" height="600px" viewBox="0 0 600 600" enable-background="new 0 0 600 600" xml:space="preserve">
<circle fill="#FFFFFF" cx="300" cy="300.5" r="299.5"/>
<g id="layer1" transform="translate(-446.85715,-442.59426)">
	<g id="g53688" transform="matrix(1.3796296,0,0,-1.3796296,745.85714,492.3076)">
		<path id="path53690" fill="#26B8EC" d="M179.936-145.552c0,4.293-3.49,7.773-7.779,7.773c-4.296,0-7.788-3.48-7.788-7.773v-16.349
			c0-4.317,3.492-7.798,7.788-7.798c4.288,0,7.779,3.481,7.779,7.798V-145.552z M137.146-124.092c0,4.291-3.48,7.776-7.875,7.776
			c-4.298,0-7.779-3.485-7.779-7.776v-37.809c0-4.317,3.48-7.798,7.779-7.798c4.395,0,7.875,3.481,7.875,7.798V-124.092z
			 M94.267-94.735c0,4.293-3.48,7.774-7.776,7.774c-4.298,0-7.779-3.482-7.779-7.774v-82.703c0-4.318,3.481-7.797,7.779-7.797
			c4.296,0,7.776,3.479,7.776,7.797V-94.735z M51.379-124.092c0,4.291-3.479,7.776-7.776,7.776c-4.287,0-7.779-3.485-7.779-7.776
			v-37.809c0-4.317,3.492-7.798,7.779-7.798c4.297,0,7.776,3.481,7.776,7.798V-124.092z M8.503-145.552
			c0,4.293-3.48,7.773-7.753,7.773c-4.298,0-7.803-3.48-7.803-7.773v-16.349c0-4.317,3.505-7.798,7.803-7.798
			c4.273,0,7.753,3.481,7.753,7.798V-145.552z M-34.305-124.092c0,4.291-3.508,7.776-7.803,7.776c-4.298,0-7.804-3.485-7.804-7.776
			v-37.809c0-4.317,3.506-7.798,7.804-7.798c4.295,0,7.803,3.481,7.803,7.798V-124.092z M-77.163-94.735
			c0,4.293-3.508,7.774-7.805,7.774c-4.295,0-7.802-3.482-7.802-7.774v-82.703c0-4.318,3.507-7.797,7.802-7.797
			c4.298,0,7.805,3.479,7.805,7.797V-94.735z M-120.023-124.092c0,4.291-3.505,7.776-7.803,7.776s-7.803-3.485-7.803-7.776v-37.809
			c0-4.317,3.505-7.798,7.803-7.798s7.803,3.481,7.803,7.798V-124.092z M-162.881-145.552c0,4.293-3.505,7.773-7.804,7.773
			c-4.292,0-7.801-3.48-7.801-7.773v-16.349c0-4.317,3.509-7.798,7.801-7.798c4.299,0,7.804,3.481,7.804,7.798V-145.552
			L-162.881-145.552z M-1.798-213.344c-0.468,0.127-7.667,1.983-15.319,1.983c-14.486,0-23.207-7.822-23.207-19.471
			c0-10.31,7.296-15.454,16.052-18.22c0.972-0.319,2.401-0.769,3.354-1.083c3.897-1.227,7.009-3.048,7.009-6.204
			c0-3.529-3.595-5.815-11.413-5.815c-6.869,0-13.456,1.964-14.843,2.315v-14.332c0.774-0.164,8.601-1.701,16.962-1.701
			c12.028,0,25.786,5.255,25.786,20.901c0,7.587-4.647,14.574-14.847,17.816l-4.335,1.381c-2.588,0.816-7.205,2.139-7.205,5.931
			c0,2.995,3.42,5.104,9.721,5.104c5.437,0,12.053-1.826,12.286-1.9V-213.344L-1.798-213.344z M131.02-243.616
			c0-9.062-6.942-16.392-16.256-16.392c-9.324,0-16.247,7.33-16.247,16.392c0,9.044,6.923,16.378,16.247,16.378
			C124.078-227.238,131.02-234.572,131.02-243.616 M114.764-211.38c-19.155,0-32.893-14.448-32.893-32.236
			c0-17.816,13.738-32.255,32.893-32.255c19.154,0,32.912,14.439,32.912,32.255C147.676-225.828,133.918-211.38,114.764-211.38
			 M-98.721-213.611c-1.477,0.438-6.936,2.231-14.33,2.231c-19.125,0-33.165-13.636-33.165-32.236
			c0-20.066,15.498-32.255,33.165-32.255c7.019,0,12.378,1.663,14.33,2.218v16.718c-0.674-0.375-5.812-3.306-13.203-3.306
			c-10.47,0-17.224,7.369-17.224,16.625c0,9.539,7.046,16.612,17.224,16.612c7.517,0,12.572-2.996,13.203-3.326V-213.611z
			 M65.323-213.611c-1.487,0.438-6.954,2.231-14.323,2.231c-19.152,0-33.193-13.636-33.193-32.236
			c0-20.066,15.516-32.255,33.193-32.255c6.981,0,12.348,1.663,14.323,2.218v16.718c-0.69-0.375-5.833-3.306-13.223-3.306
			c-10.462,0-17.209,7.369-17.209,16.625c0,9.539,7.049,16.612,17.209,16.612c7.515,0,12.581-2.996,13.223-3.326V-213.611z
			 M-61.4-274.762h-15.717v62.279H-61.4V-274.762z"/>
	</g>
</g>
</svg>
