<?xml version="1.0" encoding="utf-8"?>
<!-- Generator: Adobe Illustrator 16.0.0, SVG Export Plug-In . SVG Version: 6.00 Build 0)  -->
<!DOCTYPE svg PUBLIC "-//W3C//DTD SVG 1.1//EN" "http://www.w3.org/Graphics/SVG/1.1/DTD/svg11.dtd">
<svg version="1.1" id="Layer_1" xmlns="http://www.w3.org/2000/svg" xmlns:xlink="http://www.w3.org/1999/xlink" x="0px" y="0px"
	 width="600px" height="600px" viewBox="0 0 600 600" enable-background="new 0 0 600 600" xml:space="preserve">
<circle fill="#FFFFFF" cx="300" cy="300.5" r="299.5"/>
<g>
	<polygon fill="#23BAED" points="505.114,464.491 397.382,506.564 289.649,464.491 264.15,205.678 528.2,205.691 	"/>
	<g>
		<path fill="#015180" d="M286.217,225.679l220.12,0.011l-20.043,224.68l-88.912,34.724l-89.031-34.771L286.217,225.679
			 M264.15,205.678l25.5,258.813l107.732,42.073l107.732-42.073l23.086-258.8L264.15,205.678L264.15,205.678z"/>
	</g>
	<polygon fill="#005080" points="397.975,205.23 265.95,205.237 289.036,464.038 396.769,506.111 	"/>
	<polygon fill="#FFFFFF" points="474.583,284.726 317.767,284.726 315.216,249.664 477.134,249.664 	"/>
	<polygon fill="#FFFFFF" points="470.759,363.772 321.591,363.772 319.041,328.71 473.309,328.71 	"/>
	<polygon fill="#FFFFFF" points="473.941,285.284 331.267,360.056 319.041,328.882 460.44,254.111 	"/>
	<polygon fill="#FFFFFF" points="473.309,328.71 465.659,430.705 430.597,430.705 438.247,328.71 	"/>
	<polygon fill="#FFFFFF" points="358.881,387.995 362.706,430.705 327.646,430.705 323.819,387.995 	"/>
	
		<rect x="331.163" y="407.013" transform="matrix(-0.9596 -0.2814 0.2814 -0.9596 600.173 935.2721)" fill="#FFFFFF" width="72.153" height="35.061"/>
	
		<rect x="390.082" y="407.013" transform="matrix(0.9596 -0.2814 0.2814 0.9596 -102.2441 137.0738)" fill="#FFFFFF" width="72.154" height="35.062"/>
</g>
<g>
	<polygon fill="#EA5333" points="321.88,392.267 214.506,434.199 107.131,392.267 81.717,134.313 344.889,134.326 	"/>
	<g>
		<path fill="#BC3420" d="M103.785,154.314l219.241,0.01l-19.965,223.821l-88.555,34.583l-88.673-34.63L103.785,154.314
			 M81.717,134.313l25.414,257.953l107.375,41.933l107.374-41.933l23.009-257.941L81.717,134.313L81.717,134.313z"/>
	</g>
	<polygon fill="#BC3420" points="215.097,133.867 83.51,133.873 106.521,391.813 213.895,433.748 	"/>
	<polygon fill="#FFFFFF" points="291.451,213.098 135.155,213.098 132.614,178.152 293.993,178.152 	"/>
	<polygon fill="#FFFFFF" points="287.639,291.881 140.238,291.881 137.696,256.936 290.181,256.936 	"/>
	<polygon fill="#FFFFFF" points="166.425,178.757 172.906,279.696 137.696,256.936 132.614,179.112 	"/>
	<polygon fill="#FFFFFF" points="290.181,256.936 282.556,358.593 247.611,358.593 255.235,256.936 	"/>
	<polygon fill="#FFFFFF" points="176.134,316.024 179.946,358.593 146.272,358.593 142.46,316.024 	"/>
	<polygon fill="#FFFFFF" points="154.877,325.566 223.884,345.802 214.05,379.335 146.315,359.099 	"/>
	
		<rect x="207.232" y="334.978" transform="matrix(0.9596 -0.2814 0.2814 0.9596 -89.3487 82.6708)" fill="#FFFFFF" width="71.913" height="34.946"/>
</g>
</svg>
