<?xml version="1.0" encoding="utf-8"?>
<!-- Generator: Adobe Illustrator 16.0.0, SVG Export Plug-In . SVG Version: 6.00 Build 0)  -->
<!DOCTYPE svg PUBLIC "-//W3C//DTD SVG 1.1//EN" "http://www.w3.org/Graphics/SVG/1.1/DTD/svg11.dtd">
<svg version="1.1" id="Layer_1" xmlns="http://www.w3.org/2000/svg" xmlns:xlink="http://www.w3.org/1999/xlink" x="0px" y="0px"
	 width="600px" height="600px" viewBox="0 0 600 600" enable-background="new 0 0 600 600" xml:space="preserve">
<circle fill="#FFFFFF" cx="299.5" cy="299.717" r="299.5"/>
<g>
	<g>
		<path fill-rule="evenodd" clip-rule="evenodd" fill="#29B6EB" d="M550.713,309.201c-0.457,3.469-0.863,6.944-1.375,10.404
			c-2.004,13.575-5.971,26.521-13.189,38.252c-7.873,12.792-19.324,21.516-33.064,27.164c-18.057,7.423-36.957,10.458-56.424,9.416
			c-18.018-0.963-34.975-5.711-50.777-14.681c-19.086-10.831-30.328-27.306-35.695-48.164c-3.924-15.257-4.195-30.733-2.414-46.316
			c1.189-10.407,2.924-20.661,7.359-30.266c7.645-16.551,19.178-29.233,36.021-36.879c16.32-7.409,33.4-11.34,51.268-11.314
			c25.08,0.039,48.467,5.934,68.955,21.185c12.742,9.482,20.193,22.327,24.373,37.374c2.4,8.635,4.102,17.379,4.605,26.341
			c0.021,0.413,0.234,0.817,0.357,1.228C550.713,298.362,550.713,303.781,550.713,309.201z M484.752,295.648
			c-0.736-6.392-1.549-14.899-2.732-23.354c-1.512-10.824-8.037-16.967-18.607-19.174c-8.244-1.724-16.227-0.945-24.141,1.797
			c-6.408,2.218-10.469,6.614-12.463,12.926c-0.832,2.626-1.416,5.397-1.627,8.139c-0.521,6.737-0.811,13.492-1.104,20.244
			c-0.479,10.979-0.162,21.894,1.949,32.75c2.129,10.939,8.32,17.479,19.352,19.38c5.367,0.924,10.713,1.04,16.115,0.152
			c13.414-2.207,20.346-9.127,21.426-22.117C483.713,316.892,484.072,307.355,484.752,295.648z"/>
		<path fill-rule="evenodd" clip-rule="evenodd" fill="#29B6EB" d="M55.287,208.941c0.977-0.026,1.954-0.075,2.932-0.075
			c35.752-0.004,71.5-0.002,107.252-0.002c1.789,0,3.578,0,5.598,0c0,14.749,0,29.525,0,44.577c-8.711,0-17.475,0-26.376,0
			c0,31.153,0,62.037,0,93.13c8.812,0,17.517,0,26.358,0c0,14.697,0,29.186,0,43.852c-0.672,0.051-1.318,0.142-1.966,0.142
			c-37.256,0.007-74.513,0.007-111.769,0.003c-0.523-0.001-1.047-0.063-1.57-0.097c0-14.588,0-29.175,0-43.762
			c7.814-0.035,15.631-0.156,23.443-0.046c2.25,0.033,2.713-0.713,2.709-2.812c-0.062-29.392-0.042-58.784-0.048-88.175
			c0-0.729-0.067-1.458-0.116-2.398c-0.965,0-1.771-0.007-2.58,0.002c-7.211,0.068-14.421,0.136-21.634,0.217
			c-0.744,0.009-1.489,0.101-2.233,0.156C55.287,238.75,55.287,223.845,55.287,208.941z"/>
		<path fill-rule="evenodd" clip-rule="evenodd" fill="#29B6EB" d="M305.936,95.135c2.65,0.277,5.299,0.601,7.953,0.825
			c26.041,2.194,50.762,9.131,74.15,20.758c18.297,9.096,34.826,20.749,49.668,34.796c11.189,10.586,21.066,22.287,29.762,34.99
			c0.416,0.604,0.791,1.238,1.611,2.534c-2.445,0-4.35-0.147-6.221,0.037c-2.418,0.237-3.357-1.349-4.502-2.984
			c-10.502-15.034-23.127-28.05-37.484-39.43c-1.664-1.317-3.061-1.369-4.855-0.279c-5.137,3.113-10.305,6.182-15.566,9.071
			c-1.834,1.007-1.887,2.117-1.037,3.611c0.479,0.838,1.125,1.593,1.77,2.319c7.346,8.251,13.277,17.519,19.27,26.742
			c0.113,0.174,0.123,0.413,0.352,1.228c-2.621,0-5.045,0.114-7.443-0.079c-0.6-0.048-1.178-1.039-1.672-1.669
			c-6.59-8.385-13.176-16.775-19.73-25.19c-0.971-1.246-1.887-1.468-3.438-0.888c-10.734,4.03-21.516,7.938-32.598,12.001
			c0.328,5.439,4.453,9.973,5.666,15.828c-2.418,0-4.646,0.092-6.855-0.068c-0.523-0.039-1.146-0.844-1.451-1.436
			c-1.777-3.471-3.521-6.964-5.178-10.496c-0.68-1.45-1.395-1.928-3.127-1.518c-12.02,2.839-24.232,4.372-36.549,5.122
			c-2.25,0.138-4.514,0.195-6.74,0.501c-0.641,0.086-1.547,0.834-1.686,1.428c-0.314,1.369-0.377,2.839-0.271,4.249
			c0.119,1.597-0.596,2.211-2.021,2.248c-1.352,0.037-2.736,0.16-4.043-0.09c-0.639-0.122-1.48-0.926-1.613-1.555
			c-0.264-1.224-0.088-2.542-0.107-3.819c-0.023-1.764-0.662-2.644-2.688-2.729c-15.257-0.636-30.398-2.266-45.708-5.721
			c-1.452,3.025-2.968,6.092-4.405,9.195c-2.428,5.241-2.406,5.252-8.176,4.89c-0.521-0.033-1.041-0.101-2.006-0.197
			c2.244-5.195,4.416-10.226,6.709-15.539c-3.355-1.136-6.327-2.087-9.258-3.146c-7.898-2.852-15.789-5.722-23.654-8.659
			c-1.29-0.481-2.159-0.485-3.072,0.682c-6.11,7.808-12.334,15.528-18.385,23.382c-2.679,3.479-5.551,4.609-10.24,3.238
			c1.641-2.742,3.055-5.562,4.885-8.08c5.256-7.229,10.658-14.354,16.053-21.482c1.548-2.042,1.523-2.259-0.635-3.47
			c-5.631-3.157-11.291-6.275-16.791-9.649c-1.729-1.062-2.84-0.781-4.193,0.301c-8.597,6.875-16.623,14.373-23.807,22.701
			c-5.102,5.914-9.771,12.198-14.727,18.24c-0.607,0.741-1.761,1.319-2.721,1.422c-2.006,0.217-4.053,0.066-6.49,0.066
			c0.48-0.825,0.796-1.448,1.184-2.023c30.414-45.154,72.166-73.996,125.031-86.801c10.746-2.604,21.629-4.407,32.691-4.978
			c0.309-0.017,0.604-0.281,0.906-0.43C290.279,95.135,298.107,95.135,305.936,95.135z M247.826,168.855
			c6.547,1.027,12.442,2.226,18.396,2.821c7.826,0.783,15.701,1.095,23.555,1.599c1.23,0.079,2.129-0.052,2.111-1.757
			c-0.139-13.376-0.215-26.754-0.24-40.134c-0.004-1.746-0.666-2.266-2.34-2.422c-4.408-0.408-8.789-1.099-13.197-1.511
			c-0.85-0.079-2.103,0.331-2.607,0.963c-9.168,11.452-17.458,23.505-24.452,36.416C248.484,165.88,248.33,167.152,247.826,168.855z
			 M300.018,129.546c0,14.796,0,29.408,0,44.081c14.703-0.621,28.928-1.748,42.883-5.577c-0.193-0.59-0.248-0.889-0.383-1.146
			c-7.215-13.845-15.877-26.734-25.713-38.842c-0.363-0.448-1.279-0.739-1.879-0.66
			C310.018,128.047,305.123,128.796,300.018,129.546z M351.225,166.003c10.537-2.165,20.506-5.821,30.266-10.11
			c2.35-1.033,2.596-1.99,0.668-3.729c-5.072-4.58-10.086-9.249-15.404-13.534c-8.785-7.079-18.055-13.472-28.293-18.347
			c-1.611-0.766-3.008-0.917-4.67-0.061c-2.262,1.163-4.672,2.032-7.012,3.043c-2.359,1.018-2.379,1.266-0.965,3.357
			c5.557,8.21,11.154,16.39,16.566,24.692C345.488,156.083,348.268,161.065,351.225,166.003z M265.943,124.265
			c-3.666-1.531-6.883-2.96-10.174-4.185c-0.771-0.287-1.945-0.154-2.688,0.243c-16.197,8.677-30.557,19.863-43.903,32.409
			c-1.815,1.707-1.606,2.96,0.681,3.76c8.975,3.14,17.984,6.182,26.963,9.313c2.051,0.715,3.216,0.231,4.316-1.757
			c6.979-12.617,14.405-24.957,23.283-36.369C265.114,126.788,265.379,125.562,265.943,124.265z M338.832,107.686
			c-0.18-0.344-0.357-0.689-0.533-1.033c-7.707-1.128-15.391-2.478-23.127-3.33c-11.229-1.24-22.533-1.562-33.773-0.43
			c-9.25,0.93-18.428,2.556-27.629,3.929c-0.547,0.081-1.43,0.654-1.436,1.009c-0.01,0.616,0.382,1.503,0.891,1.819
			c2.734,1.702,5.455,3.484,8.365,4.836c14.898,6.922,30.525,8.512,46.66,6.061c10.293-1.565,19.943-4.892,28.68-10.638
			C337.713,109.395,338.205,108.438,338.832,107.686z M240.572,110.062c-3.277,1.104-6.1,2.043-8.916,3.004
			c-17.062,5.823-33.131,13.663-48.087,23.746c-0.99,0.667-1.962,1.417-2.761,2.295c-0.879,0.97-0.926,1.988,0.439,2.751
			c5.174,2.895,10.312,5.848,15.503,8.712c1.634,0.902,3.021,0.787,4.596-0.704c4.853-4.594,9.668-9.302,14.987-13.319
			c9.101-6.871,18.562-13.264,27.901-19.817c0.974-0.684,2.284-1.545,1.405-2.558C244.233,112.552,242.279,111.401,240.572,110.062z
			 M392.197,150.848c0.865-0.312,1.461-0.438,1.963-0.724c5.08-2.905,10.154-5.82,15.211-8.769c1.773-1.035,1.811-1.994,0.119-3.157
			c-17.486-12.027-36.135-21.616-56.68-27.348c-2.721-0.759-4.459,0.178-6.24,1.678c-1.467,1.229-1.291,2.613,0.381,3.582
			c15.896,9.207,30.127,20.558,43.18,33.438C390.717,150.128,391.557,150.453,392.197,150.848z"/>
		<path fill-rule="evenodd" clip-rule="evenodd" fill="#29B6EB" d="M55.287,346.685c0.153,0.008,0.306,0.015,0.459,0.024
			c0,14.587,0,29.174,0,43.762c-0.153,0.007-0.306,0.015-0.459,0.021C55.287,375.891,55.287,361.287,55.287,346.685z"/>
		<path fill-rule="evenodd" clip-rule="evenodd" fill="#29B6EB" d="M307.381,222.411c0-3.854,0-7.069,0-10.439
			c12.91,0,25.668,0,38.627,0c0,20.56,0,41.123,0,61.829c-0.695,0.042-1.35,0.112-2.002,0.114
			c-11.139,0.007-22.277,0.029-33.416-0.042c-0.904-0.006-2.184-0.404-2.648-1.07c-7.82-11.228-18.939-17.479-31.689-21.41
			c-9.369-2.891-18.968-3.81-28.699-3.578c-3.812,0.092-7.523,0.879-10.244,3.901c-2.76,3.065-2.076,7.542,1.862,9.391
			c4.177,1.959,8.637,3.39,13.075,4.706c19.056,5.649,38.33,10.618,57.176,16.892c18.787,6.255,32.994,18.544,39.73,37.539
			c9.014,25.42-2.588,55.556-30.277,67.079c-14.162,5.894-28.855,7.898-44.091,6.896c-14.313-0.938-28.021-4.237-41.093-10.098
			c-3.074-1.376-5.951-3.191-8.94-4.76c-0.757-0.396-1.61-0.613-2.751-1.038c0,4.253,0,8.117,0,12.112c-13.503,0-26.771,0-40.148,0
			c0-22.09,0-44.107,0-66.283c0.527-0.045,1.025-0.12,1.525-0.12c11.062-0.007,22.125-0.025,33.189,0.037
			c0.742,0.004,1.85,0.417,2.172,0.986c6.936,12.329,17.898,19.313,30.951,23.598c13.201,4.333,26.521,4.719,39.953,1.231
			c1.229-0.318,2.449-0.756,3.588-1.312c3.416-1.676,4.176-5.66,1.111-7.836c-2.746-1.951-5.986-3.437-9.225-4.439
			c-19.771-6.129-39.623-12.004-59.414-18.079c-14.365-4.408-26.584-12.099-35.908-24.084c-7.477-9.612-9.998-20.624-9.508-32.577
			c0.543-13.205,4.266-25.187,13.621-34.847c7.709-7.959,17.353-12.807,27.871-15.921c15.887-4.704,32.002-4.537,48.24-2.139
			c12.297,1.815,23.658,6.003,34.16,12.621C305.006,221.792,306.059,221.952,307.381,222.411z"/>
		<path fill-rule="evenodd" clip-rule="evenodd" fill="#29B6EB" d="M123.155,409.941c2.782,0,5.169-0.145,7.519,0.085
			c0.752,0.071,1.568,1.017,2.087,1.751c10.8,15.345,23.327,29.062,37.993,40.816c1.955,1.565,3.479,1.736,5.625,0.406
			c5.039-3.128,10.229-6.015,15.35-9.011c2.15-1.259,2.309-2.306,0.83-4.3c-6.57-8.87-13.127-17.753-19.664-26.651
			c-0.609-0.83-1.029-1.801-1.764-3.112c2.832,0,5.319-0.074,7.797,0.063c0.463,0.026,0.917,0.864,1.312,1.377
			c6.504,8.453,13.016,16.902,19.482,25.385c1.26,1.652,2.473,1.717,4.428,0.985c10.182-3.818,20.442-7.417,30.678-11.089
			c0.693-0.248,1.396-0.468,2.498-0.836c-2.307-5.279-4.551-10.412-6.99-15.994c2.727,0,4.809-0.112,6.865,0.067
			c0.607,0.054,1.347,0.821,1.682,1.446c1.914,3.574,3.787,7.174,5.536,10.831c0.565,1.182,1.208,1.439,2.435,1.277
			c13.471-1.777,26.945-3.505,40.422-5.227c1.041-0.132,2.119-0.261,3.148-0.136c2.117,0.257,2.6-0.88,2.572-2.639
			c-0.025-1.722-0.004-3.444-0.004-5.511c2.121,0,4.275-0.105,6.404,0.084c0.434,0.039,1.049,1.158,1.102,1.815
			c0.15,1.849,0.053,3.72,0.053,5.197c16.213,2.097,32.121,4.154,48.486,6.27c1.646-3.272,3.752-7.157,5.557-11.178
			c0.816-1.816,1.838-2.463,3.748-2.238c1.404,0.163,2.844,0.031,5.012,0.031c-2.16,5.409-4.186,10.476-6.324,15.835
			c2.955,0.965,5.797,1.808,8.582,2.818c8.033,2.916,16.066,5.844,24.045,8.903c1.725,0.662,2.758,0.381,3.826-1.021
			c6.279-8.247,12.643-16.429,18.871-24.715c0.947-1.262,1.76-2.005,3.42-1.857c1.865,0.163,3.754,0.037,6.057,0.037
			c-0.484,0.909-0.812,1.604-1.205,2.26c-5.795,9.62-12.404,18.643-19.771,27.118c-1.818,2.093-1.699,2.718,0.705,4.094
			c5.215,2.984,10.432,5.971,15.65,8.948c3.484,1.988,3.471,1.96,6.662-0.644c11.895-9.708,22.172-20.958,31.533-33.079
			c1.697-2.201,3.451-4.381,4.928-6.728c1.023-1.626,2.215-2.188,4.062-2.001c1.617,0.163,3.266,0.034,5.578,0.034
			c-11.215,17.654-24.287,32.81-39.658,45.947c-31.242,26.704-67.377,42.535-108.129,47.445
			C231.635,514.217,158.619,466.289,123.155,409.941z M300.855,470.328c5.188,0.789,10.07,1.579,14.969,2.24
			c1.266,0.169,2.502,0.265,3.566-1.134c9.158-12.025,17.594-24.514,24.695-37.875c0.361-0.679,0.559-1.443,0.908-2.369
			c-14.619-3.657-29.176-5.006-44.139-5.356C300.855,440.756,300.855,455.455,300.855,470.328z M292.994,425.749
			c-1.9,0.104-3.379,0.215-4.857,0.261c-12.34,0.385-24.555,1.75-36.58,4.622c-2.332,0.557-2.496,0.844-1.35,3.003
			c7.104,13.37,15.376,25.971,24.936,37.712c0.582,0.715,1.934,1.286,2.842,1.18c4.311-0.507,8.58-1.367,12.891-1.896
			c1.734-0.213,2.172-0.838,2.16-2.54c-0.078-11.884-0.041-23.77-0.041-35.653C292.994,430.338,292.994,428.241,292.994,425.749z
			 M267.763,475.261c-0.62-0.981-1.046-1.746-1.554-2.453c-8.704-12.156-16.934-24.619-24.006-37.808
			c-0.834-1.557-1.825-2.055-3.422-1.488c-9.312,3.302-18.643,6.555-27.923,9.945c-2.692,0.984-2.841,2.243-0.729,4.184
			c3.041,2.797,6.094,5.587,9.232,8.273c10.527,9.006,21.664,17.154,33.904,23.711c0.75,0.4,1.82,0.919,2.468,0.671
			C259.701,478.769,263.59,477.036,267.763,475.261z M352.971,433.414c-7.67,13.701-15.932,26.858-25.141,39.414
			c-0.588,0.801-0.676,1.97-0.979,2.916c3.291,1.342,6.211,2.516,9.115,3.727c1.488,0.619,2.805,0.575,4.25-0.321
			c3.572-2.217,7.299-4.185,10.861-6.414c11.965-7.495,22.961-16.202,32.656-26.496c1.518-1.612,1.357-2.15-0.684-3.034
			C373.402,439.021,363.549,435.463,352.971,433.414z M295.502,478.026c-2.377,0.215-6.582,0.421-10.736,1.005
			c-10.598,1.494-20.545,4.892-29.543,10.787c-0.61,0.4-1.133,1.346-1.158,2.057c-0.014,0.365,1.106,0.982,1.792,1.137
			c13.457,3.027,27.122,4.378,40.882,4.359c7.719-0.009,15.461-0.538,23.143-1.321c6.326-0.645,12.582-1.988,18.859-3.085
			c0.543-0.096,1.408-0.647,1.414-1c0.012-0.617-0.416-1.347-0.869-1.834c-0.498-0.531-1.229-0.848-1.863-1.242
			C325.146,481.244,311.617,478.266,295.502,478.026z M413.152,459.33c-0.822-0.729-1.361-1.391-2.053-1.784
			c-4.695-2.678-9.422-5.3-14.141-7.933c-3.199-1.785-3.633-1.733-6.281,0.611c-7.09,6.273-13.936,12.853-21.344,18.722
			c-6.639,5.262-13.914,9.716-20.857,14.599c-0.65,0.457-1.396,1.516-1.293,2.166c0.289,1.831,4.273,3.928,6.102,3.357
			c4.863-1.514,9.783-2.896,14.547-4.68c15.457-5.793,30.004-13.348,43.408-23.026C411.863,460.914,412.316,460.232,413.152,459.33z
			 M200.201,448.474c-1.062,0.423-2.006,0.688-2.842,1.152c-4.791,2.659-9.563,5.349-14.322,8.067
			c-1.954,1.115-1.975,2.806-0.053,4.138c17.67,12.237,36.723,21.556,57.487,27.262c1.788,0.49,5.271-1.13,6.089-2.813
			c0.58-1.192,0.137-1.902-0.958-2.551c-15.993-9.473-30.578-20.758-43.618-34.022C201.496,449.21,200.822,448.896,200.201,448.474z
			"/>
	</g>
</g>
</svg>
