<?xml version="1.0" encoding="utf-8"?>
<!-- Generator: Adobe Illustrator 16.0.0, SVG Export Plug-In . SVG Version: 6.00 Build 0)  -->
<!DOCTYPE svg PUBLIC "-//W3C//DTD SVG 1.1//EN" "http://www.w3.org/Graphics/SVG/1.1/DTD/svg11.dtd">
<svg version="1.1" id="Layer_1" xmlns="http://www.w3.org/2000/svg" xmlns:xlink="http://www.w3.org/1999/xlink" x="0px" y="0px"
	 width="600px" height="600px" viewBox="0 0 600 600" enable-background="new 0 0 600 600" xml:space="preserve">
<circle fill="#FFFFFF" cx="299.498" cy="300" r="299.5"/>
<g>
	<rect x="274.505" y="249.464" fill-rule="evenodd" clip-rule="evenodd" fill="#EA5333" width="16.01" height="116.637"/>
	<rect x="347.307" y="249.464" fill-rule="evenodd" clip-rule="evenodd" fill="#EA5333" width="16.009" height="116.637"/>
	<rect x="419.731" y="249.464" fill-rule="evenodd" clip-rule="evenodd" fill="#EA5333" width="16.009" height="116.637"/>
	<rect x="447.938" y="249.464" fill-rule="evenodd" clip-rule="evenodd" fill="#EA5333" width="16.008" height="116.637"/>
	<rect x="447.938" y="350.091" fill-rule="evenodd" clip-rule="evenodd" fill="#EA5333" width="104.434" height="16.01"/>
	<rect x="303.095" y="249.273" fill-rule="evenodd" clip-rule="evenodd" fill="#EA5333" width="104.434" height="16.009"/>
</g>
<g>
	<g>
		
			<circle fill-rule="evenodd" clip-rule="evenodd" fill="none" stroke="#B53423" stroke-width="30" stroke-miterlimit="10" cx="157.677" cy="306.104" r="63.803"/>
		<path fill="#EA5333" d="M240.578,307.906c0,0-0.014,0.443-0.04,1.301c-0.014,0.43-0.03,0.963-0.05,1.596
			c-0.004,0.158-0.01,0.324-0.015,0.496c-0.005,0.17-0.008,0.328-0.029,0.602c-0.035,0.492-0.073,1.02-0.113,1.578
			c-0.043,0.557-0.089,1.148-0.138,1.771c-0.054,0.613-0.098,1.307-0.187,1.906c-0.164,1.248-0.353,2.611-0.583,4.078
			c-0.285,1.459-0.557,3.033-0.933,4.695c-0.414,1.652-0.805,3.422-1.4,5.24c-1.047,3.678-2.596,7.631-4.555,11.777
			c-1.955,4.152-4.48,8.439-7.582,12.689c-6.177,8.498-14.878,16.842-25.953,22.994c-5.522,3.08-11.635,5.533-18.076,7.322
			c-1.613,0.441-3.267,0.785-4.914,1.15c-0.832,0.148-1.667,0.297-2.506,0.445c-0.834,0.154-1.674,0.289-2.525,0.385
			c-0.845,0.104-1.694,0.209-2.546,0.314c-0.85,0.1-1.712,0.141-2.569,0.211c-1.713,0.15-3.446,0.164-5.178,0.191
			c-0.864,0.031-1.734-0.012-2.603-0.037c-0.866-0.033-1.735-0.064-2.607-0.098c-0.867-0.072-1.737-0.145-2.609-0.217l-1.304-0.113
			c0.138-0.004-0.373-0.012-0.372-0.02l-0.146-0.021l-0.292-0.043l-0.584-0.086c-0.779-0.117-1.561-0.232-2.345-0.35l-0.294-0.045
			l-0.341-0.059l-0.683-0.121l-1.364-0.246c-1.855-0.301-3.526-0.754-5.251-1.166c-6.847-1.791-13.511-4.5-19.701-8.051
			c-6.205-3.531-11.895-7.963-16.972-12.967c-2.538-2.51-4.875-5.215-7.072-8.018l-1.604-2.137c-0.528-0.717-1.01-1.469-1.515-2.201
			l-0.75-1.104l-0.708-1.135c-0.462-0.76-0.962-1.494-1.39-2.277c-3.576-6.158-6.341-12.768-8.208-19.619l-0.654-2.58
			c-0.212-0.861-0.353-1.74-0.548-2.605l-0.274-1.303l-0.212-1.314c-0.131-0.877-0.302-1.748-0.401-2.629
			c-0.446-3.521-0.682-7.066-0.695-10.613c0.013-3.547,0.25-7.091,0.695-10.613c0.101-0.883,0.271-1.753,0.402-2.631l0.211-1.314
			l0.275-1.302c0.195-0.865,0.335-1.744,0.548-2.605l0.653-2.582c1.868-6.851,4.633-13.461,8.209-19.619
			c0.428-0.782,0.928-1.517,1.39-2.278l0.708-1.134l0.75-1.103c0.505-0.732,0.987-1.485,1.515-2.202l1.604-2.137
			c2.197-2.802,4.535-5.508,7.072-8.018c5.078-5.003,10.767-9.433,16.972-12.965c6.19-3.552,12.854-6.259,19.701-8.051
			c1.716-0.412,3.433-0.867,5.166-1.159c0.865-0.157,1.73-0.341,2.598-0.471c0.871-0.12,1.739-0.239,2.605-0.357l0.652-0.088
			l0.326-0.043l0.163-0.022c0.011-0.009,0.505-0.005,0.365-0.013l1.171-0.114c0.779-0.076,1.556-0.152,2.331-0.227
			c0.871-0.046,1.816-0.066,2.723-0.095c0.914-0.024,1.854-0.06,2.697-0.031c1.731,0.028,3.464,0.042,5.177,0.192
			c0.857,0.07,1.719,0.111,2.569,0.21c0.852,0.106,1.7,0.211,2.545,0.316c0.851,0.094,1.691,0.229,2.525,0.384
			c0.838,0.149,1.674,0.297,2.506,0.445c1.646,0.365,3.301,0.709,4.914,1.15c6.44,1.791,12.553,4.244,18.076,7.323
			c11.074,6.153,19.775,14.498,25.952,22.995c3.101,4.251,5.627,8.539,7.581,12.689c1.959,4.148,3.507,8.101,4.555,11.778
			c0.596,1.819,0.986,3.587,1.4,5.241c0.377,1.661,0.648,3.235,0.934,4.695c0.23,1.467,0.418,2.83,0.583,4.078
			c0.157,1.25,0.216,2.392,0.308,3.412c0.195,2.041,0.178,3.607,0.226,4.664c0.029,1.057,0.044,1.602,0.044,1.602L240.578,307.906z
			 M206.824,307.479c0,0-0.008-0.342-0.022-1.004c-0.031-0.66,0.016-1.646-0.106-2.918c-0.056-0.637-0.068-1.354-0.162-2.131
			c-0.084-0.78-0.177-1.631-0.277-2.551c-0.158-0.91-0.278-1.899-0.476-2.941c-0.248-1.029-0.38-2.158-0.702-3.308
			c-1.135-4.622-2.937-10.216-6.26-16.156c-3.29-5.931-8.001-12.291-14.642-18.002c-3.333-2.819-7.099-5.539-11.389-7.813
			c-4.257-2.356-9.043-4.188-14.217-5.57c-0.666-0.197-1.253-0.315-1.87-0.46c-0.624-0.14-1.211-0.294-1.882-0.434
			c-1.43-0.21-2.869-0.423-4.316-0.636c-0.698-0.08-1.398-0.159-2.1-0.238c-0.705-0.071-1.411-0.092-2.125-0.143
			c-1.43-0.123-2.863-0.094-4.323-0.118c-2.904,0.055-5.876,0.251-8.852,0.74c-1.504,0.188-2.979,0.541-4.493,0.832
			c-0.749,0.171-1.485,0.388-2.236,0.581l-1.126,0.299l-1.11,0.355c-11.942,3.613-23.542,11.361-31.831,22.364l-1.527,2.083
			c-0.497,0.705-0.944,1.443-1.42,2.167l-0.701,1.095l-0.652,1.125c-0.423,0.757-0.898,1.492-1.281,2.273
			c-1.623,3.083-3.001,6.317-4.13,9.649c-1.147,3.331-1.937,6.783-2.541,10.27l-0.376,2.629c-0.131,0.877-0.161,1.763-0.246,2.646
			c-0.187,1.764-0.174,3.541-0.247,5.312c0.073,1.771,0.06,3.547,0.246,5.312c0.085,0.881,0.116,1.77,0.246,2.645l0.376,2.631
			c0.604,3.486,1.394,6.939,2.541,10.27c1.129,3.332,2.507,6.564,4.13,9.648c0.382,0.781,0.858,1.516,1.282,2.273l0.652,1.125
			l0.701,1.096c0.477,0.723,0.923,1.461,1.42,2.166l1.528,2.084c8.288,11.002,19.888,18.752,31.83,22.365l1.11,0.355l1.126,0.299
			c0.751,0.193,1.488,0.408,2.236,0.58c1.515,0.291,2.989,0.645,4.493,0.832c2.975,0.488,5.947,0.686,8.852,0.74
			c1.452-0.023,2.931,0.008,4.238-0.125l1-0.064l0.496-0.033l0.248-0.016l0.296-0.027c0.789-0.078,1.576-0.154,2.36-0.23
			l0.587-0.057l0.294-0.029l0.146-0.014c0.098-0.004-0.315-0.02-0.08-0.023l1.03-0.172c0.681-0.111,1.36-0.223,2.038-0.336
			c0.668-0.145,1.335-0.289,1.999-0.434c0.661-0.146,1.319-0.271,1.963-0.467c5.175-1.381,9.961-3.215,14.218-5.57
			c4.29-2.275,8.057-4.994,11.389-7.812c6.641-5.711,11.352-12.072,14.642-18.002c3.323-5.939,5.125-11.533,6.26-16.156
			c0.322-1.148,0.454-2.277,0.702-3.307c0.197-1.043,0.317-2.031,0.476-2.941c0.1-0.92,0.192-1.771,0.277-2.551
			c0.062-0.414,0.06-0.695,0.084-1.006c0.021-0.303,0.042-0.588,0.062-0.859c0.023-0.27,0.045-0.523,0.065-0.764
			c0.014-0.092,0.016-0.287,0.019-0.459c0.003-0.17,0.007-0.336,0.01-0.494c0.013-0.633,0.023-1.166,0.031-1.596
			c0.017-0.859,0.025-1.303,0.025-1.303L206.824,307.479z"/>
	</g>
	<g>
		<g>
			<path fill="#B53423" d="M237.274,300.208c0,0-0.021,0.54-0.062,1.586c-0.02,0.523-0.045,1.173-0.075,1.945
				c-0.022,0.409-0.015,0.753-0.065,1.301c-0.043,0.524-0.09,1.084-0.14,1.679c-0.116,1.17-0.186,2.557-0.39,3.931
				c-0.219,1.376-0.429,2.882-0.719,4.497c-0.351,1.604-0.648,3.344-1.125,5.164c-0.513,1.811-0.979,3.752-1.68,5.742
				c-1.261,4.021-3.087,8.324-5.351,12.826c-0.594,1.113-1.15,2.271-1.811,3.401c-0.661,1.128-1.334,2.277-2.021,3.447
				c-0.74,1.134-1.493,2.287-2.26,3.461c-0.784,1.159-1.63,2.304-2.462,3.481c-3.444,4.629-7.42,9.302-12.096,13.706
				c-4.663,4.416-10.026,8.532-15.963,12.232c-5.917,3.727-12.262,7.323-19.202,10.492c-6.947,3.14-14.512,5.714-22.609,7.626
				c-1.01,0.264-2.036,0.432-3.065,0.633c-1.034,0.197-2.071,0.396-3.112,0.595c-1.05,0.152-2.103,0.306-3.159,0.46l-1.596,0.228
				c0.188,0.012-0.49,0.021-0.478,0.022l-0.179,0.019l-0.358,0.039l-0.717,0.078c-0.956,0.099-1.915,0.198-2.877,0.298
				c-0.436,0.062-1.093,0.062-1.648,0.09l-1.741,0.061c-2.392,0.113-4.558,0.055-6.81-0.01c-8.959-0.37-18.191-2.201-26.989-5.699
				c-8.809-3.479-17.208-8.42-24.946-14.429c-3.854-3.031-7.461-6.415-10.903-9.998c-3.392-3.631-6.574-7.506-9.453-11.632
				c-2.846-4.149-5.387-8.534-7.651-13.079c-2.252-4.556-4.057-9.341-5.59-14.212c-1.488-4.89-2.608-9.898-3.341-14.964
				c-0.309-2.54-0.63-5.079-0.751-7.633c-0.085-1.274-0.177-2.549-0.174-3.825l-0.045-4.229l0.131-3.241l0.037-0.81l0.019-0.405
				l0.041-0.504l0.177-2.053l0.19-2.05l0.099-1.023l0.135-0.95l0.556-3.783c0.89-5.018,2.059-9.983,3.674-14.794
				c1.637-4.799,3.562-9.48,5.846-13.958c2.313-4.459,4.895-8.75,7.771-12.799c5.835-8.001,12.483-15.426,20.534-20.808
				c8.085-5.337,16.965-8.799,25.528-11.671c1.069-0.365,2.136-0.729,3.2-1.092c1.064-0.357,2.094-0.797,3.151-1.157
				c2.117-0.709,4.227-1.414,6.383-1.91c4.273-1.134,8.593-1.866,12.871-2.407c2.146-0.216,4.275-0.472,6.405-0.53
				c1.063-0.042,2.121-0.121,3.178-0.128c1.056,0.001,2.108,0.003,3.158,0.005l1.784,0.015l1.422,0.077
				c0.947,0.052,1.89,0.103,2.831,0.154c2.08,0.206,4.326,0.357,6.337,0.643c2.02,0.295,4.029,0.552,5.997,0.978
				c0.986,0.199,1.972,0.375,2.945,0.594c0.968,0.239,1.933,0.478,2.895,0.716c1.93,0.441,3.8,1.052,5.675,1.577
				c1.854,0.594,3.68,1.229,5.481,1.876c7.172,2.69,13.822,6.024,19.816,9.85c12.016,7.634,21.424,17.088,28.193,26.593
				c3.398,4.752,6.165,9.517,8.329,14.116c2.144,4.604,3.888,8.969,5.03,13.045c0.651,2.016,1.068,3.977,1.534,5.805
				c0.433,1.835,0.724,3.58,1.044,5.194c0.251,1.625,0.424,3.138,0.608,4.52c0.182,1.383,0.233,2.649,0.335,3.778
				c0.215,2.259,0.187,3.998,0.237,5.167c0.029,1.17,0.044,1.774,0.044,1.774L237.274,300.208z M216.744,299.943
				c0,0-0.013-0.477-0.037-1.4c-0.043-0.922-0.002-2.299-0.178-4.077c-0.084-0.889-0.109-1.889-0.255-2.977
				c-0.149-1.087-0.277-2.278-0.47-3.558c-0.235-1.271-0.41-2.654-0.717-4.106c-0.337-1.444-0.607-3.003-1.088-4.602
				c-0.828-3.232-1.99-6.752-3.535-10.485c-0.413-0.92-0.774-1.89-1.231-2.838c-0.455-0.95-0.919-1.919-1.391-2.905
				c-0.522-0.963-1.053-1.944-1.593-2.941c-0.551-0.993-1.181-1.963-1.781-2.975c-4.994-7.933-12.148-16.22-21.931-22.745
				c-4.881-3.242-10.336-6.09-16.285-8.25c-5.948-2.164-12.399-3.505-19.076-4.092c-13.375-1.068-27.715,1.164-40.731,7.304
				l-2.33,1.387c-0.751,0.512-1.501,1.022-2.237,1.553c-1.484,1.037-2.889,2.204-4.261,3.385c-2.751,2.369-5.229,5.025-7.71,7.578
				c-2.435,2.615-4.838,5.199-7.2,7.838c-2.312,2.685-4.426,5.541-6.37,8.512c-1.908,2.996-3.581,6.137-5.066,9.361
				c-1.454,3.241-2.63,6.597-3.617,10.001c-0.947,3.418-1.626,6.903-2.108,10.413l-0.275,2.645l-0.071,0.658l-0.025,0.593
				l-0.061,1.183l-0.072,1.181l-0.019,0.304l-0.002,0.405l-0.004,0.811l-0.036,3.243c0.013-0.75,0.008-0.112,0.013-0.237
				l0.008,0.166l0.015,0.333l0.03,0.665l0.056,1.329c0.012,0.888,0.112,1.767,0.197,2.646c0.121,1.767,0.412,3.508,0.66,5.252
				c0.639,3.463,1.366,6.903,2.441,10.244c1.089,3.332,2.386,6.585,3.871,9.747c1.535,3.139,3.247,6.187,5.186,9.082
				c1.976,2.867,4.05,5.664,6.35,8.265c2.323,2.577,4.799,4.997,7.398,7.262c2.629,2.225,5.351,4.331,8.227,6.178
				c2.887,1.821,5.838,3.521,8.893,4.969c3.043,1.465,6.117,2.864,9.273,4.021c3.127,1.262,6.34,2.245,9.573,3.202
				c1.621,0.408,3.297,0.913,4.762,1.23l1.141,0.275c0.404,0.088,0.703,0.201,1.227,0.265c0.956,0.147,1.908,0.294,2.858,0.44
				l0.712,0.113l0.355,0.057l0.178,0.028c0.124,0.012-0.429,0.008-0.122,0.019l1.25,0.156c0.838,0.106,1.673,0.213,2.506,0.319
				c1.666,0.126,3.343,0.291,5.007,0.32c13.335,0.498,26.438-3.114,36.358-9.814c4.96-3.346,9.187-7.256,12.864-11.212
				c3.665-3.978,6.753-8.079,9.202-12.186c2.484-4.086,4.337-8.155,5.771-11.984c1.425-3.834,2.505-7.416,3.214-10.704
				c0.782-3.269,1.199-6.234,1.58-8.8c0.153-1.29,0.244-2.489,0.359-3.581c0.124-1.097,0.131-1.976,0.201-2.824
				c0.029-0.416,0.056-0.808,0.081-1.175c0.032-0.343,0.019-0.835,0.029-1.198c0.01-0.772,0.018-1.423,0.025-1.946
				c0.013-1.048,0.02-1.588,0.02-1.588L216.744,299.943z"/>
		</g>
		<path fill="#EA5333" d="M244.581,300.43c0,0-0.018,0.593-0.052,1.746c-0.017,0.574-0.038,1.291-0.063,2.139
			c-0.006,0.213-0.013,0.434-0.02,0.662c-0.006,0.23-0.009,0.449-0.037,0.783c-0.045,0.619-0.092,1.277-0.143,1.977
			c-0.055,0.701-0.112,1.441-0.173,2.221c-0.066,0.771-0.118,1.633-0.232,2.402c-0.209,1.594-0.441,3.334-0.729,5.209
			c-0.361,1.861-0.7,3.873-1.174,5.994c-0.258,1.057-0.525,2.146-0.799,3.268c-0.145,0.561-0.277,1.129-0.438,1.701
			c-0.171,0.568-0.345,1.145-0.521,1.729c-1.314,4.703-3.265,9.76-5.724,15.078c-2.457,5.322-5.637,10.83-9.546,16.312
			c-7.791,10.955-18.776,21.805-32.869,29.979c-7.031,4.084-14.828,7.42-23.095,9.902c-1.023,0.34-2.09,0.566-3.139,0.846
			c-1.056,0.262-2.106,0.543-3.172,0.785c-1.071,0.215-2.146,0.432-3.226,0.648l-1.617,0.322l-1.638,0.252
			c-1.091,0.16-2.187,0.324-3.286,0.486c-1.099,0.154-2.213,0.234-3.322,0.35c-2.216,0.252-4.461,0.324-6.708,0.416
			c-1.121,0.07-2.252,0.039-3.381,0.035c-1.129-0.012-2.26-0.01-3.392-0.039c-1.13-0.064-2.264-0.131-3.401-0.197l-1.702-0.104
			c0.122-0.002-0.406-0.01-0.422-0.018l-0.195-0.023l-0.391-0.045l-0.784-0.094c-1.046-0.121-2.095-0.244-3.147-0.369l-0.395-0.045
			l-0.441-0.066l-0.884-0.139l-1.767-0.275c-2.395-0.33-4.603-0.865-6.869-1.344c-4.492-1.107-8.973-2.355-13.325-4.066
			c-2.199-0.773-4.326-1.773-6.475-2.691c-1.053-0.508-2.109-1.018-3.167-1.527l-1.58-0.77l-1.546-0.846
			c-8.279-4.445-15.942-10.107-22.809-16.607c-3.435-3.256-6.606-6.789-9.598-10.463l-2.185-2.807
			c-0.719-0.941-1.377-1.932-2.068-2.895l-1.024-1.455l-0.965-1.496c-0.631-1.006-1.314-1.975-1.9-3.008
			c-4.892-8.141-8.695-16.941-11.262-26.098l-0.9-3.449c-0.292-1.152-0.492-2.326-0.757-3.484l-0.376-1.744l-0.291-1.76
			c-0.182-1.174-0.415-2.342-0.554-3.521c-0.622-4.717-0.932-9.469-0.961-14.225c0.029-4.756,0.339-9.509,0.961-14.225
			c0.14-1.181,0.373-2.348,0.554-3.523l0.291-1.76l0.376-1.742c0.265-1.159,0.465-2.333,0.757-3.485l0.901-3.45
			c2.566-9.156,6.37-17.956,11.262-26.095c0.586-1.035,1.27-2.004,1.9-3.01l0.966-1.496l1.024-1.454
			c0.69-0.963,1.349-1.955,2.068-2.896l2.185-2.807c2.992-3.673,6.164-7.208,9.599-10.462c6.867-6.499,14.529-12.162,22.809-16.607
			l1.546-0.845l1.58-0.771c1.058-0.511,2.114-1.02,3.167-1.528c2.149-0.917,4.276-1.917,6.475-2.69
			c4.352-1.71,8.833-2.959,13.325-4.067c2.257-0.478,4.51-1.015,6.783-1.336c1.134-0.175,2.267-0.387,3.403-0.527
			c1.139-0.126,2.274-0.251,3.406-0.377l0.852-0.093l0.425-0.046l0.213-0.023c0.027-0.01,0.539-0.005,0.415-0.013l1.568-0.104
			c1.044-0.069,2.085-0.138,3.123-0.207c1.133-0.031,2.341-0.028,3.508-0.038c1.174-0.003,2.375-0.025,3.476,0.042
			c2.246,0.093,4.492,0.165,6.708,0.416c1.108,0.118,2.223,0.196,3.322,0.351c1.1,0.163,2.195,0.325,3.286,0.487l1.638,0.252
			l1.617,0.321c1.08,0.217,2.155,0.434,3.226,0.649c1.066,0.241,2.117,0.523,3.172,0.785c1.049,0.279,2.116,0.505,3.139,0.845
			c8.268,2.483,16.064,5.818,23.096,9.902c14.092,8.174,25.078,19.025,32.868,29.979c3.909,5.483,7.088,10.99,9.545,16.313
			c2.459,5.319,4.41,10.375,5.724,15.076c0.176,0.584,0.35,1.161,0.521,1.73c0.161,0.571,0.294,1.142,0.438,1.701
			c0.274,1.122,0.541,2.211,0.799,3.267c0.474,2.122,0.812,4.133,1.174,5.996c0.288,1.874,0.521,3.614,0.729,5.208
			c0.2,1.595,0.272,3.054,0.389,4.355c0.249,2.605,0.222,4.609,0.282,5.957c0.036,1.349,0.055,2.045,0.055,2.045L244.581,300.43z
			 M210.826,300.002c0,0-0.011-0.492-0.034-1.447c-0.043-0.951,0.014-2.375-0.162-4.21c-0.081-0.918-0.105-1.952-0.242-3.076
			c-0.129-1.125-0.271-2.353-0.423-3.68c-0.234-1.314-0.421-2.74-0.716-4.242c-0.159-0.75-0.322-1.522-0.49-2.318
			c-0.084-0.398-0.154-0.806-0.25-1.214c-0.105-0.405-0.211-0.815-0.32-1.232c-1.699-6.656-4.445-14.675-9.394-23.079
			c-4.903-8.389-11.899-17.254-21.558-24.987c-9.629-7.693-21.969-14.233-36.497-17.372c-0.922-0.235-1.771-0.367-2.647-0.533
			c-0.884-0.159-1.734-0.336-2.667-0.491c-1.032-0.121-2.068-0.243-3.108-0.365l-1.561-0.183c-0.254-0.009,0.126-0.015,0.022-0.018
			l-0.179-0.013l-0.359-0.026l-0.72-0.053c-0.964-0.072-1.931-0.145-2.901-0.217c-0.972-0.062-1.946-0.054-2.929-0.087
			c-1.969-0.093-3.938,0.017-5.94,0.06c-3.981,0.224-8.038,0.63-12.08,1.439c-2.043,0.328-4.042,0.877-6.09,1.345
			c-1.011,0.269-2.009,0.593-3.023,0.888l-1.52,0.455l-1.497,0.53c-8.042,2.746-15.906,6.782-23.122,12.049
			c-0.893,0.673-1.787,1.347-2.682,2.022c-0.883,0.692-1.724,1.438-2.593,2.157L63.85,233.2l-1.244,1.153
			c-0.822,0.778-1.689,1.521-2.469,2.348c-3.237,3.206-6.205,6.722-8.964,10.434l-2.01,2.835c-0.655,0.958-1.244,1.959-1.871,2.939
			c-0.306,0.495-0.625,0.983-0.922,1.484l-0.856,1.524c-0.555,1.025-1.18,2.021-1.683,3.077l-1.543,3.158
			c-0.5,1.062-0.937,2.152-1.409,3.229c-0.228,0.542-0.472,1.078-0.688,1.625l-0.611,1.658c-0.386,1.112-0.839,2.206-1.171,3.338
			c-1.501,4.482-2.537,9.118-3.33,13.797l-0.49,3.528c-0.173,1.176-0.212,2.365-0.324,3.548c-0.247,2.366-0.226,4.748-0.32,7.124
			c0.094,2.375,0.073,4.756,0.319,7.124c0.112,1.182,0.151,2.371,0.325,3.549l0.49,3.527c0.793,4.68,1.829,9.314,3.33,13.797
			c0.332,1.133,0.785,2.225,1.171,3.338l0.611,1.658c0.216,0.547,0.46,1.084,0.689,1.625c0.472,1.078,0.909,2.168,1.408,3.229
			l1.544,3.16c0.502,1.057,1.127,2.051,1.683,3.076l0.856,1.523c0.297,0.502,0.616,0.99,0.923,1.484
			c0.627,0.98,1.216,1.982,1.871,2.939l2.009,2.836c2.759,3.711,5.727,7.229,8.963,10.434c0.781,0.826,1.647,1.57,2.469,2.348
			l1.244,1.154l1.293,1.096c0.869,0.719,1.71,1.463,2.593,2.156c0.895,0.676,1.79,1.35,2.682,2.023
			c7.215,5.266,15.08,9.301,23.122,12.049l1.498,0.529l1.52,0.455c1.014,0.295,2.011,0.619,3.022,0.889
			c2.048,0.467,4.047,1.016,6.09,1.344c4.042,0.809,8.099,1.215,12.08,1.439c1.993,0.043,4.008,0.156,5.855,0.053l1.402-0.035
			l0.697-0.016l0.349-0.008l0.396-0.027c1.057-0.07,2.111-0.141,3.161-0.209l0.788-0.053l0.393-0.025l0.196-0.014
			c0.115-0.002-0.282-0.02-0.03-0.021l1.428-0.184c0.946-0.119,1.889-0.238,2.829-0.355c0.931-0.164,1.859-0.328,2.784-0.49
			c0.921-0.168,1.84-0.309,2.742-0.541c14.528-3.137,26.868-9.678,36.497-17.371c9.659-7.732,16.655-16.598,21.558-24.986
			c4.949-8.404,7.696-16.422,9.395-23.078c0.108-0.416,0.215-0.828,0.32-1.232c0.096-0.406,0.166-0.816,0.25-1.213
			c0.168-0.797,0.332-1.57,0.491-2.318c0.294-1.504,0.482-2.93,0.715-4.242c0.153-1.328,0.294-2.557,0.424-3.682
			c0.088-0.586,0.092-1.033,0.13-1.502c0.034-0.459,0.065-0.895,0.096-1.307c0.034-0.412,0.065-0.799,0.096-1.162
			c0.02-0.156,0.022-0.41,0.027-0.641c0.005-0.229,0.009-0.449,0.014-0.662c0.018-0.85,0.032-1.564,0.044-2.141
			c0.024-1.151,0.037-1.746,0.037-1.746L210.826,300.002z"/>
	</g>
</g>
</svg>
