<?xml version="1.0" encoding="utf-8"?>
<!-- Generator: Adobe Illustrator 16.0.0, SVG Export Plug-In . SVG Version: 6.00 Build 0)  -->
<!DOCTYPE svg PUBLIC "-//W3C//DTD SVG 1.1//EN" "http://www.w3.org/Graphics/SVG/1.1/DTD/svg11.dtd">
<svg version="1.1" id="Layer_1" xmlns="http://www.w3.org/2000/svg" xmlns:xlink="http://www.w3.org/1999/xlink" x="0px" y="0px"
	 width="600px" height="600px" viewBox="0 0 600 600" enable-background="new 0 0 600 600" xml:space="preserve">
<circle fill="#FFFFFF" cx="300" cy="300.5" r="299.5"/>
<g>
	<g>
		<path fill="#27B7EB" d="M385.03,134.502v331.996H214.969V134.502H385.03 M401.6,104.502H198.4
			c-7.418,0-13.431,5.685-13.431,12.697v366.602c0,7.012,6.013,12.697,13.431,12.697H401.6c7.417,0,13.431-5.686,13.431-12.697
			V117.199C415.03,110.187,409.017,104.502,401.6,104.502L401.6,104.502z"/>
	</g>
	<rect x="207.468" y="428.486" fill="#27B7EB" width="188.991" height="50.996"/>
	<rect x="207.468" y="125.26" fill="#27B7EB" width="188.991" height="33.239"/>
	<circle fill="#FFFFFF" cx="301.963" cy="461.227" r="21.256"/>
	<path fill="#FFFFFF" d="M341.248,138.377c0,2.141-1.735,3.876-3.876,3.876h-74.744c-2.141,0-3.876-1.735-3.876-3.876l0,0
		c0-2.141,1.735-3.876,3.876-3.876h74.744C339.513,134.5,341.248,136.236,341.248,138.377L341.248,138.377z"/>
</g>
</svg>
