<?xml version="1.0" encoding="utf-8"?>
<!-- Generator: Adobe Illustrator 16.0.0, SVG Export Plug-In . SVG Version: 6.00 Build 0)  -->
<!DOCTYPE svg PUBLIC "-//W3C//DTD SVG 1.1//EN" "http://www.w3.org/Graphics/SVG/1.1/DTD/svg11.dtd">
<svg version="1.1" id="Layer_1" xmlns="http://www.w3.org/2000/svg" xmlns:xlink="http://www.w3.org/1999/xlink" x="0px" y="0px"
	 width="600px" height="600px" viewBox="0 0 600 600" enable-background="new 0 0 600 600" xml:space="preserve">
<circle fill="#FFFFFF" cx="300" cy="300.5" r="299.5"/>
<g>
	<path fill="#23BAED" d="M540,203.211H409.232v19.383h53.943v167.195h22.885V222.594H540V203.211z M387.163,222.594v-19.383h-99.94
		v186.578h99.94v-19.391h-77.058V305.25h68.653v-19.383h-68.653v-63.273H387.163z M92.227,380.68
		c0,8.898-7.212,16.109-16.109,16.109c-8.902,0-16.117-7.211-16.117-16.109c0-8.906,7.215-16.109,16.117-16.109
		C85.014,364.57,92.227,371.773,92.227,380.68z M261.232,203.211h-22.889v147.297L133.102,203.211h-22.885v186.578h22.885V242.633
		L238.42,389.789h22.812V203.211z"/>
</g>
</svg>
