<?xml version="1.0" encoding="utf-8"?>
<!-- Generator: Adobe Illustrator 16.0.0, SVG Export Plug-In . SVG Version: 6.00 Build 0)  -->
<!DOCTYPE svg PUBLIC "-//W3C//DTD SVG 1.1//EN" "http://www.w3.org/Graphics/SVG/1.1/DTD/svg11.dtd">
<svg version="1.1" id="Layer_1" xmlns="http://www.w3.org/2000/svg" xmlns:xlink="http://www.w3.org/1999/xlink" x="0px" y="0px"
	 width="600px" height="600px" viewBox="0 0 600 600" enable-background="new 0 0 600 600" xml:space="preserve">
<circle fill="#FFFFFF" cx="300" cy="300.5" r="299.5"/>
<g>
	<g>
		<path fill="#1FBBEE" d="M443.5,170v177h-287V170H443.5 M471.5,130h-343c-6.627,0-12,5.373-12,12v233c0,6.627,5.373,12,12,12h343
			c6.627,0,12-5.373,12-12V142C483.5,135.373,478.127,130,471.5,130L471.5,130z"/>
	</g>
	<rect x="256.5" y="392" fill="#1FBBEE" width="87" height="79"/>
	<path fill="#1FBBEE" d="M402.5,459c0,6.627-5.373,12-12,12h-181c-6.627,0-12-5.373-12-12v-4c0-6.627,5.373-12,12-12h181
		c6.627,0,12,5.373,12,12V459z"/>
</g>
</svg>
