<?xml version="1.0" encoding="utf-8"?>
<!-- Generator: Adobe Illustrator 16.0.0, SVG Export Plug-In . SVG Version: 6.00 Build 0)  -->
<!DOCTYPE svg PUBLIC "-//W3C//DTD SVG 1.1//EN" "http://www.w3.org/Graphics/SVG/1.1/DTD/svg11.dtd">
<svg version="1.1" id="Layer_1" xmlns="http://www.w3.org/2000/svg" xmlns:xlink="http://www.w3.org/1999/xlink" x="0px" y="0px"
	 width="600px" height="600px" viewBox="0 0 600 600" enable-background="new 0 0 600 600" xml:space="preserve">
<circle fill="#FFFFFF" cx="300" cy="300.5" r="299.5"/>
<g id="g4" transform="translate(-44.632 -141.55)">
	<g id="g6" transform="matrix(8.3528 0 0 8.3119 -727.13 -3759.5)">
		<path id="path8" fill="#27B7EB" d="M102.362,496.452h9.144c2.684,0.023,4.629,0.796,5.834,2.32
			c1.206,1.524,1.604,3.605,1.194,6.244c-0.159,1.205-0.512,2.388-1.058,3.548c-0.523,1.16-1.251,2.206-2.184,3.139
			c-1.137,1.183-2.354,1.933-3.651,2.252c-1.296,0.319-2.638,0.478-4.026,0.478h-4.094l-1.296,6.483h-4.743L102.362,496.452
			 M106.354,500.341l-2.047,10.236c0.136,0.023,0.273,0.034,0.409,0.034h0.478c2.184,0.023,4.003-0.193,5.459-0.648
			c1.456-0.478,2.434-2.138,2.934-4.981c0.409-2.388,0-3.764-1.228-4.128c-1.206-0.364-2.718-0.535-4.538-0.512
			c-0.273,0.023-0.535,0.034-0.785,0.034c-0.227,0-0.466,0-0.716,0L106.354,500.341"/>
		<path id="path10" fill="#27B7EB" d="M123.938,489.937h4.708l-1.331,6.517h4.231c2.32,0.045,4.049,0.523,5.186,1.433
			c1.16,0.91,1.501,2.639,1.023,5.186l-2.286,11.361h-4.777l2.184-10.85c0.228-1.137,0.159-1.945-0.205-2.422
			c-0.364-0.478-1.149-0.717-2.354-0.717l-3.787-0.034l-2.798,14.023h-4.708L123.938,489.937"/>
		<path id="path12" fill="#27B7EB" d="M142.812,496.452h9.144c2.684,0.023,4.629,0.796,5.834,2.32
			c1.206,1.524,1.604,3.605,1.194,6.244c-0.159,1.205-0.512,2.388-1.058,3.548c-0.523,1.16-1.251,2.206-2.183,3.139
			c-1.137,1.183-2.354,1.933-3.651,2.252c-1.296,0.319-2.639,0.478-4.026,0.478h-4.094l-1.296,6.483h-4.743L142.812,496.452
			 M146.804,500.341l-2.047,10.236c0.136,0.023,0.273,0.034,0.409,0.034h0.478c2.184,0.023,4.003-0.193,5.459-0.648
			c1.456-0.478,2.434-2.138,2.934-4.981c0.409-2.388,0-3.764-1.228-4.128c-1.206-0.364-2.718-0.535-4.538-0.512
			c-0.273,0.023-0.535,0.034-0.785,0.034c-0.227,0-0.466,0-0.716,0L146.804,500.341"/>
	</g>
</g>
</svg>
