<?xml version="1.0" encoding="utf-8"?>
<!-- Generator: Adobe Illustrator 16.0.0, SVG Export Plug-In . SVG Version: 6.00 Build 0)  -->
<!DOCTYPE svg PUBLIC "-//W3C//DTD SVG 1.1//EN" "http://www.w3.org/Graphics/SVG/1.1/DTD/svg11.dtd">
<svg version="1.1" id="Layer_1" xmlns="http://www.w3.org/2000/svg" xmlns:xlink="http://www.w3.org/1999/xlink" x="0px" y="0px"
	 width="800px" height="800px" viewBox="0 0 800 800" enable-background="new 0 0 800 800" xml:space="preserve">
<path fill="#FFFFFF" d="M767.401,399.991c0,121.526-58.899,229.277-149.683,296.29c-32.468,23.982-69.013,42.738-108.397,55.061
	c-34.724,10.855-71.674,16.708-109.978,16.708c-37.609,0-73.898-5.645-108.058-16.129c-39.352-12.045-75.882-30.528-108.396-54.222
	C91.009,630.801,31.287,522.372,31.287,399.991c0-203.259,164.796-368.039,368.057-368.039
	c115.559,0,218.695,53.271,286.176,136.588c25.997,32.111,46.707,68.673,60.786,108.396
	C759.966,315.417,767.401,356.834,767.401,399.991z"/>
<path fill="#EA5233" d="M291.286,168.54v583.38c-39.352-12.045-75.882-30.528-108.396-54.222V168.54H291.286z"/>
<path fill="#EA5233" d="M617.719,184.667V696.28c-32.468,23.982-69.013,42.738-108.397,55.061V184.667H617.719z"/>
<rect x="336.322" y="168.54" fill="#EA5233" width="454.392" height="108.388"/>
</svg>
